<mxfile host="65bd71144e">
    <diagram id="zaeMc1xhCrONg7oMz10p" name="Page-1">
        <mxGraphModel dx="6291" dy="4386" grid="1" gridSize="10" guides="1" tooltips="1" connect="1" arrows="1" fold="1" page="1" pageScale="1" pageWidth="850" pageHeight="1100" background="#4D4D4D" math="0" shadow="0">
            <root>
                <mxCell id="0"/>
                <mxCell id="1" parent="0"/>
                <mxCell id="2" value="&lt;h1&gt;&lt;font style=&quot;font-size: 22px&quot;&gt;App&lt;/font&gt;&lt;/h1&gt;" style="rounded=0;whiteSpace=wrap;html=1;verticalAlign=top;" vertex="1" parent="1">
                    <mxGeometry x="-80" y="-290" width="1370" height="1080" as="geometry"/>
                </mxCell>
                <mxCell id="4" value="Character Control" style="rounded=0;whiteSpace=wrap;html=1;verticalAlign=top;fontSize=20;" vertex="1" parent="1">
                    <mxGeometry x="-70" y="-230" width="1350" height="1010" as="geometry"/>
                </mxCell>
                <mxCell id="3" value="Header - Text changes dependent on page" style="rounded=0;whiteSpace=wrap;html=1;verticalAlign=top;fontSize=20;" vertex="1" parent="1">
                    <mxGeometry x="-60" y="-190" width="1330" height="60" as="geometry"/>
                </mxCell>
                <mxCell id="5" value="Options Sidebar - default, will show if no character is loaded" style="rounded=0;whiteSpace=wrap;html=1;verticalAlign=top;fontSize=20;" vertex="1" parent="1">
                    <mxGeometry x="-60" y="-120" width="350" height="890" as="geometry"/>
                </mxCell>
                <mxCell id="6" value="Content Area - Changes depending on buttons from sidebar." style="rounded=0;whiteSpace=wrap;html=1;fontSize=20;verticalAlign=top;" vertex="1" parent="1">
                    <mxGeometry x="300" y="-120" width="970" height="890" as="geometry"/>
                </mxCell>
                <mxCell id="33" value="" style="edgeStyle=none;html=1;fontSize=20;" edge="1" parent="1" source="7" target="32">
                    <mxGeometry relative="1" as="geometry"/>
                </mxCell>
                <mxCell id="7" value="Back to Character" style="rounded=1;whiteSpace=wrap;html=1;fontSize=20;verticalAlign=middle;" vertex="1" parent="1">
                    <mxGeometry x="-50" y="700" width="330" height="60" as="geometry"/>
                </mxCell>
                <mxCell id="58" value="" style="edgeStyle=none;html=1;fontSize=18;entryX=1;entryY=0.5;entryDx=0;entryDy=0;exitX=0;exitY=0.5;exitDx=0;exitDy=0;" edge="1" parent="1" source="9" target="35">
                    <mxGeometry relative="1" as="geometry">
                        <mxPoint x="-50" y="630" as="sourcePoint"/>
                        <mxPoint x="-130" y="660" as="targetPoint"/>
                    </mxGeometry>
                </mxCell>
                <mxCell id="60" value="" style="edgeStyle=none;html=1;fontSize=18;" edge="1" parent="1" source="9" target="59">
                    <mxGeometry relative="1" as="geometry"/>
                </mxCell>
                <mxCell id="9" value="Save/Load Character" style="rounded=1;whiteSpace=wrap;html=1;fontSize=20;verticalAlign=middle;fillColor=#f5f5f5;strokeColor=#666666;fontColor=#333333;" vertex="1" parent="1">
                    <mxGeometry x="-50" y="560" width="330" height="60" as="geometry"/>
                </mxCell>
                <mxCell id="24" value="" style="edgeStyle=none;html=1;fontSize=20;exitX=1;exitY=0.5;exitDx=0;exitDy=0;entryX=0;entryY=0.5;entryDx=0;entryDy=0;" edge="1" parent="1" source="11" target="25">
                    <mxGeometry relative="1" as="geometry">
                        <mxPoint x="340" y="645" as="targetPoint"/>
                    </mxGeometry>
                </mxCell>
                <mxCell id="11" value="Delete Character" style="rounded=1;whiteSpace=wrap;html=1;fontSize=20;verticalAlign=middle;" vertex="1" parent="1">
                    <mxGeometry x="-50" y="490" width="330" height="60" as="geometry"/>
                </mxCell>
                <mxCell id="16" value="" style="edgeStyle=none;html=1;fontSize=20;" edge="1" parent="1" source="14">
                    <mxGeometry relative="1" as="geometry">
                        <mxPoint x="330" y="-350" as="targetPoint"/>
                    </mxGeometry>
                </mxCell>
                <mxCell id="14" value="Black Button" style="rounded=1;whiteSpace=wrap;html=1;fontSize=20;verticalAlign=middle;" vertex="1" parent="1">
                    <mxGeometry x="-80" y="-380" width="330" height="60" as="geometry"/>
                </mxCell>
                <mxCell id="17" value="Only shows if character is loaded" style="text;html=1;strokeColor=none;fillColor=none;align=center;verticalAlign=middle;whiteSpace=wrap;rounded=0;fontSize=20;" vertex="1" parent="1">
                    <mxGeometry x="330" y="-360" width="300" height="20" as="geometry"/>
                </mxCell>
                <mxCell id="20" value="" style="edgeStyle=none;html=1;fontSize=20;" edge="1" parent="1" source="18">
                    <mxGeometry relative="1" as="geometry">
                        <mxPoint x="330" y="-420" as="targetPoint"/>
                    </mxGeometry>
                </mxCell>
                <mxCell id="18" value="White Button" style="rounded=1;whiteSpace=wrap;html=1;fontSize=20;verticalAlign=middle;fillColor=#f5f5f5;strokeColor=#666666;fontColor=#333333;" vertex="1" parent="1">
                    <mxGeometry x="-80" y="-450" width="330" height="60" as="geometry"/>
                </mxCell>
                <mxCell id="21" value="Always shows" style="text;html=1;strokeColor=none;fillColor=none;align=center;verticalAlign=middle;whiteSpace=wrap;rounded=0;fontSize=20;" vertex="1" parent="1">
                    <mxGeometry x="330" y="-430" width="130" height="20" as="geometry"/>
                </mxCell>
                <mxCell id="27" value="" style="edgeStyle=none;html=1;fontSize=20;" edge="1" parent="1" source="22" target="26">
                    <mxGeometry relative="1" as="geometry"/>
                </mxCell>
                <mxCell id="22" value="New Character" style="rounded=1;whiteSpace=wrap;html=1;fontSize=20;verticalAlign=middle;fillColor=#f5f5f5;strokeColor=#666666;fontColor=#333333;" vertex="1" parent="1">
                    <mxGeometry x="-50" y="420" width="330" height="60" as="geometry"/>
                </mxCell>
                <mxCell id="25" value="Confirmation page" style="rounded=0;whiteSpace=wrap;html=1;fontSize=20;verticalAlign=middle;" vertex="1" parent="1">
                    <mxGeometry x="315" y="490" width="940" height="60" as="geometry"/>
                </mxCell>
                <mxCell id="64" value="" style="edgeStyle=none;html=1;fontSize=18;exitX=1;exitY=0.5;exitDx=0;exitDy=0;" edge="1" parent="1" source="26" target="63">
                    <mxGeometry relative="1" as="geometry"/>
                </mxCell>
                <mxCell id="26" value="New Character form, cycle through views with counter." style="rounded=0;whiteSpace=wrap;html=1;fontSize=20;verticalAlign=middle;" vertex="1" parent="1">
                    <mxGeometry x="315" y="420" width="940" height="60" as="geometry"/>
                </mxCell>
                <mxCell id="32" value="Character Info Pages" style="rounded=0;whiteSpace=wrap;html=1;fontSize=20;verticalAlign=middle;" vertex="1" parent="1">
                    <mxGeometry x="315" y="700" width="940" height="60" as="geometry"/>
                </mxCell>
                <mxCell id="38" value="&lt;ul&gt;&lt;li&gt;&lt;span&gt;Inspiration Marker&lt;/span&gt;&lt;/li&gt;&lt;li&gt;AC calculated from dex/armor/bonuses&lt;/li&gt;&lt;li&gt;Initiative&lt;/li&gt;&lt;li&gt;Proficiency Bonus&lt;/li&gt;&lt;li&gt;Speed&lt;/li&gt;&lt;li&gt;Ability Scoresd (SDCIWC) and bonuses&lt;/li&gt;&lt;li&gt;HP min/max (Space for temp hit points or negative max HP)&lt;/li&gt;&lt;li&gt;Hit Dice (1d10 + 3 per lvl, etc)&lt;/li&gt;&lt;li&gt;Condition List - Allow player to add and remove&lt;/li&gt;&lt;li&gt;2 Equipped Weapons (name, atk bonus, damage)&lt;/li&gt;&lt;li&gt;Death Saves&lt;/li&gt;&lt;li&gt;Saving Throws (add proficiency bonus to saving throws per class)&lt;/li&gt;&lt;li&gt;Spell save DC&lt;/li&gt;&lt;li&gt;Passive Perception&lt;/li&gt;&lt;li&gt;Custom fields to track character conditions (poisoned, etc)&lt;/li&gt;&lt;/ul&gt;" style="rounded=0;whiteSpace=wrap;html=1;fontSize=20;verticalAlign=middle;align=left;" vertex="1" parent="1">
                    <mxGeometry x="-1355" y="-480" width="635" height="460" as="geometry"/>
                </mxCell>
                <mxCell id="39" value="Character info header (Class/Subclass/Level, Background, Player Name, Race, Alignment, current XP/Next Level XP" style="rounded=0;whiteSpace=wrap;html=1;fontSize=18;verticalAlign=middle;" vertex="1" parent="1">
                    <mxGeometry x="315" y="-90" width="945" height="60" as="geometry"/>
                </mxCell>
                <mxCell id="41" value="&lt;ul&gt;&lt;li&gt;weapon/armor proficiencies&lt;/li&gt;&lt;li&gt;&lt;span&gt;weapons/armor/shields w/stats&lt;/span&gt;&lt;/li&gt;&lt;li&gt;misc inventory item - weight - total (optional)&lt;/li&gt;&lt;li&gt;search box that uses API to look up details on items and add them&lt;/li&gt;&lt;li&gt;equipped armor (adds AC, account for bonus)&lt;/li&gt;&lt;li&gt;equipped shield (adds AC, account for bonus)&lt;/li&gt;&lt;li&gt;equipped weapons (adds to main)&lt;/li&gt;&lt;li&gt;magic item tracker, limit to 3 attuned (account for artificer skills)&lt;/li&gt;&lt;li&gt;GP (option to track in PP/EP/GP/SP/CP)&lt;/li&gt;&lt;/ul&gt;" style="rounded=0;whiteSpace=wrap;html=1;fontSize=20;verticalAlign=middle;align=left;" vertex="1" parent="1">
                    <mxGeometry x="-1360" y="-10" width="640" height="270" as="geometry"/>
                </mxCell>
                <mxCell id="62" value="" style="edgeStyle=none;html=1;fontSize=18;" edge="1" parent="1" source="43" target="61">
                    <mxGeometry relative="1" as="geometry"/>
                </mxCell>
                <mxCell id="43" value="Options" style="rounded=1;whiteSpace=wrap;html=1;fontSize=20;verticalAlign=middle;fillColor=#f5f5f5;strokeColor=#666666;fontColor=#333333;" vertex="1" parent="1">
                    <mxGeometry x="-50" y="350" width="330" height="60" as="geometry"/>
                </mxCell>
                <mxCell id="45" value="&lt;ul&gt;&lt;li&gt;&lt;span&gt;Character skills with accurate proficiency bonus (account for 2x rogue(1/6) and bard(3/10) expertise for two skills)&lt;/span&gt;&lt;/li&gt;&lt;li&gt;Str: Athletics&lt;/li&gt;&lt;li&gt;Dex: Acrobatics, Sleight of Hand, Stealth&lt;/li&gt;&lt;li&gt;Int: Arcana, History, Investigation, Nature, Religion&lt;/li&gt;&lt;li&gt;Wis: Animal Handling, Insight, Medicine, Perception, Survival&lt;/li&gt;&lt;li&gt;Cha: Deception, Intimidation, Performance, Persuasion&lt;/li&gt;&lt;/ul&gt;" style="rounded=0;whiteSpace=wrap;html=1;fontSize=20;verticalAlign=middle;align=left;" vertex="1" parent="1">
                    <mxGeometry x="-1350" y="270" width="630" height="280" as="geometry"/>
                </mxCell>
                <mxCell id="47" value="&lt;ul&gt;&lt;li&gt;&lt;span&gt;Ability list (lookup from https://www.dnd5eapi.co/api/classes/{class}/features)&lt;/span&gt;&lt;/li&gt;&lt;li&gt;Attempt to make API calls for all to propagate list, if not may have to add search box and ability to add custom fields.&lt;/li&gt;&lt;li&gt;Feats (lookup w/API) (option)&lt;/li&gt;&lt;li&gt;Racial Traits&lt;/li&gt;&lt;li&gt;Background abilities&lt;/li&gt;&lt;li&gt;Languages Known based on race/profession&lt;/li&gt;&lt;/ul&gt;" style="rounded=0;whiteSpace=wrap;html=1;fontSize=20;verticalAlign=middle;align=left;" vertex="1" parent="1">
                    <mxGeometry x="-1450" y="560" width="730" height="210" as="geometry"/>
                </mxCell>
                <mxCell id="54" value="&lt;ul&gt;&lt;li&gt;&lt;span&gt;Physical description: Age, Height, Weight, Eyes, Skin, Hair&lt;/span&gt;&lt;/li&gt;&lt;li&gt;Character Appearance: extra text for appearance.&lt;/li&gt;&lt;li&gt;Allies: add w/form to make ul&lt;/li&gt;&lt;li&gt;Organizations: add w/form to make ul&lt;/li&gt;&lt;li&gt;Backstory: text box&lt;/li&gt;&lt;li&gt;Treasure: add w/form to make ul&lt;/li&gt;&lt;/ul&gt;" style="rounded=0;whiteSpace=wrap;html=1;fontSize=20;verticalAlign=middle;align=left;" vertex="1" parent="1">
                    <mxGeometry x="-1450" y="780" width="730" height="200" as="geometry"/>
                </mxCell>
                <mxCell id="56" value="" style="group" vertex="1" connectable="0" parent="1">
                    <mxGeometry x="-520" y="-65" width="350" height="890" as="geometry"/>
                </mxCell>
                <mxCell id="35" value="Character Sidebar - shows charName" style="rounded=0;whiteSpace=wrap;html=1;verticalAlign=top;fontSize=20;" vertex="1" parent="56">
                    <mxGeometry width="350" height="890" as="geometry"/>
                </mxCell>
                <mxCell id="12" value="Main" style="rounded=1;whiteSpace=wrap;html=1;fontSize=20;verticalAlign=middle;" vertex="1" parent="56">
                    <mxGeometry x="10" y="35" width="330" height="60" as="geometry"/>
                </mxCell>
                <mxCell id="13" value="Inventory" style="rounded=1;whiteSpace=wrap;html=1;fontSize=20;verticalAlign=middle;" vertex="1" parent="56">
                    <mxGeometry x="10" y="105" width="330" height="60" as="geometry"/>
                </mxCell>
                <mxCell id="36" value="Skills" style="rounded=1;whiteSpace=wrap;html=1;fontSize=20;verticalAlign=middle;" vertex="1" parent="56">
                    <mxGeometry x="10" y="175" width="330" height="60" as="geometry"/>
                </mxCell>
                <mxCell id="37" value="Spells (strech goal)" style="rounded=1;whiteSpace=wrap;html=1;fontSize=20;verticalAlign=middle;" vertex="1" parent="56">
                    <mxGeometry x="10" y="820" width="330" height="60" as="geometry"/>
                </mxCell>
                <mxCell id="46" value="Abilities" style="rounded=1;whiteSpace=wrap;html=1;fontSize=20;verticalAlign=middle;" vertex="1" parent="56">
                    <mxGeometry x="10" y="245" width="330" height="60" as="geometry"/>
                </mxCell>
                <mxCell id="52" value="Description" style="rounded=1;whiteSpace=wrap;html=1;fontSize=20;verticalAlign=middle;" vertex="1" parent="56">
                    <mxGeometry x="14" y="315" width="330" height="60" as="geometry"/>
                </mxCell>
                <mxCell id="75" value="Personality" style="rounded=1;whiteSpace=wrap;html=1;fontSize=20;verticalAlign=middle;" vertex="1" parent="56">
                    <mxGeometry x="14" y="385" width="330" height="60" as="geometry"/>
                </mxCell>
                <mxCell id="51" value="" style="edgeStyle=none;html=1;fontSize=18;entryX=0.998;entryY=0.218;entryDx=0;entryDy=0;entryPerimeter=0;exitX=0;exitY=0.5;exitDx=0;exitDy=0;" edge="1" parent="1" source="46" target="47">
                    <mxGeometry relative="1" as="geometry">
                        <mxPoint x="-430" y="170" as="sourcePoint"/>
                    </mxGeometry>
                </mxCell>
                <mxCell id="48" value="" style="edgeStyle=none;html=1;fontSize=18;entryX=1;entryY=0.25;entryDx=0;entryDy=0;exitX=0;exitY=0.75;exitDx=0;exitDy=0;" edge="1" parent="1" source="36" target="45">
                    <mxGeometry relative="1" as="geometry"/>
                </mxCell>
                <mxCell id="44" value="" style="edgeStyle=none;html=1;fontSize=18;exitX=0;exitY=0.5;exitDx=0;exitDy=0;" edge="1" parent="1" source="13" target="41">
                    <mxGeometry relative="1" as="geometry"/>
                </mxCell>
                <mxCell id="40" value="" style="edgeStyle=none;html=1;fontSize=18;exitX=0;exitY=0.5;exitDx=0;exitDy=0;" edge="1" parent="1" source="12" target="38">
                    <mxGeometry relative="1" as="geometry"/>
                </mxCell>
                <mxCell id="55" value="" style="edgeStyle=none;html=1;fontSize=18;entryX=1.007;entryY=0.124;entryDx=0;entryDy=0;entryPerimeter=0;exitX=0;exitY=1;exitDx=0;exitDy=0;" edge="1" parent="1" source="52" target="54">
                    <mxGeometry relative="1" as="geometry"/>
                </mxCell>
                <mxCell id="59" value="Save List Page&lt;br&gt;Can confirm slots to save/load character (start w/one)" style="rounded=0;whiteSpace=wrap;html=1;fontSize=20;verticalAlign=middle;" vertex="1" parent="1">
                    <mxGeometry x="315" y="560" width="940" height="60" as="geometry"/>
                </mxCell>
                <mxCell id="61" value="Game options: Use Feats, Encumberance" style="rounded=0;whiteSpace=wrap;html=1;fontSize=20;verticalAlign=middle;" vertex="1" parent="1">
                    <mxGeometry x="317.5" y="350" width="940" height="60" as="geometry"/>
                </mxCell>
                <mxCell id="70" value="" style="edgeStyle=none;html=1;fontSize=18;" edge="1" parent="1" source="63" target="65">
                    <mxGeometry relative="1" as="geometry"/>
                </mxCell>
                <mxCell id="63" value="View 1&lt;br&gt;&lt;ul&gt;&lt;li&gt;Pick race/subrace from API List (DDL)&lt;/li&gt;&lt;li&gt;Pick class (DDL)&lt;/li&gt;&lt;li&gt;Pick Background (DDL)&lt;/li&gt;&lt;li&gt;click each for more details, maybe add UA/variant human&lt;/li&gt;&lt;li&gt;Assign initial level, ability scores, HP, etc&lt;/li&gt;&lt;/ul&gt;" style="whiteSpace=wrap;html=1;rounded=0;fontSize=20;verticalAlign=top;align=left;" vertex="1" parent="1">
                    <mxGeometry x="1320" y="340" width="595" height="220" as="geometry"/>
                </mxCell>
                <mxCell id="81" value="" style="edgeStyle=none;html=1;fontSize=18;" edge="1" parent="1" source="65" target="68">
                    <mxGeometry relative="1" as="geometry"/>
                </mxCell>
                <mxCell id="65" value="View 2&lt;br&gt;&lt;ul&gt;&lt;li&gt;Ability scores update&lt;/li&gt;&lt;li&gt;Apply proficiencies and skills based on background/class&lt;/li&gt;&lt;li&gt;&lt;span&gt;Choose languages if available&lt;/span&gt;&lt;br&gt;&lt;/li&gt;&lt;/ul&gt;" style="whiteSpace=wrap;html=1;rounded=0;fontSize=20;verticalAlign=top;align=left;" vertex="1" parent="1">
                    <mxGeometry x="1960" y="340" width="390" height="220" as="geometry"/>
                </mxCell>
                <mxCell id="66" value="To Start, player will manually assign level, HP, and abilities and can change them at any time." style="whiteSpace=wrap;html=1;rounded=0;fontSize=20;verticalAlign=top;align=left;shadow=0;sketch=0;" vertex="1" parent="1">
                    <mxGeometry x="210" y="-510" width="860" height="40" as="geometry"/>
                </mxCell>
                <mxCell id="68" value="View 3&lt;br&gt;&lt;ul&gt;&lt;li&gt;Name (mandatory)&lt;/li&gt;&lt;li&gt;Physical/Mental data (optional&lt;/li&gt;&lt;/ul&gt;" style="whiteSpace=wrap;html=1;rounded=0;fontSize=20;verticalAlign=top;align=left;" vertex="1" parent="1">
                    <mxGeometry x="2380" y="390" width="320" height="120" as="geometry"/>
                </mxCell>
                <mxCell id="76" value="&lt;ul&gt;&lt;li&gt;Personality Traits&lt;/li&gt;&lt;li&gt;Ideals&lt;/li&gt;&lt;li&gt;Bonds&lt;/li&gt;&lt;li&gt;Flaws&lt;/li&gt;&lt;/ul&gt;" style="rounded=0;whiteSpace=wrap;html=1;fontSize=20;verticalAlign=middle;align=left;" vertex="1" parent="1">
                    <mxGeometry x="-1450" y="990" width="730" height="200" as="geometry"/>
                </mxCell>
                <mxCell id="80" value="" style="edgeStyle=none;html=1;fontSize=18;entryX=1;entryY=0.155;entryDx=0;entryDy=0;entryPerimeter=0;exitX=0;exitY=1;exitDx=0;exitDy=0;" edge="1" parent="1" source="75" target="76">
                    <mxGeometry relative="1" as="geometry">
                        <mxPoint x="-341" y="460" as="targetPoint"/>
                    </mxGeometry>
                </mxCell>
            </root>
        </mxGraphModel>
    </diagram>
</mxfile>